<svg xmlns="http://www.w3.org/2000/svg" xmlns:xlink="http://www.w3.org/1999/xlink" width="500" zoomAndPan="magnify" viewBox="0 0 375 374.999991" height="500" preserveAspectRatio="xMidYMid meet" version="1.0"><defs><g><g id="id1"/><g id="id2"/></g><clipPath id="id3"><path d="M 142.972656 133 L 232.222656 133 L 232.222656 168 L 142.972656 168 Z M 142.972656 133 " clip-rule="nonzero"/></clipPath><clipPath id="id4"><path d="M 142.972656 90.625 L 232.222656 90.625 L 232.222656 210.625 L 142.972656 210.625 Z M 142.972656 90.625 " clip-rule="nonzero"/></clipPath></defs><rect x="-37.5" width="450" fill="rgb(100%, 100%, 100%)" y="-37.499999" height="449.999989" fill-opacity="1"/><rect x="-37.5" width="450" fill="rgb(1.959229%, 3.919983%, 18.818665%)" y="-37.499999" height="449.999989" fill-opacity="1"/><rect x="-37.5" width="450" fill="rgb(100%, 100%, 100%)" y="-37.499999" height="449.999989" fill-opacity="1"/><rect x="-37.5" width="450" fill="rgb(1.959229%, 3.919983%, 18.818665%)" y="-37.499999" height="449.999989" fill-opacity="1"/><g clip-path="url(#id3)"><path fill="rgb(100%, 34.118652%, 13.328552%)" d="M 223.132812 146.507812 L 152.066406 146.507812 C 151.609375 146.507812 151.238281 146.136719 151.238281 145.683594 L 151.238281 134.609375 C 151.238281 134.15625 150.871094 133.789062 150.414062 133.789062 L 143.800781 133.789062 C 143.347656 133.789062 142.976562 134.15625 142.976562 134.609375 L 142.976562 166.625 C 142.976562 167.078125 143.347656 167.449219 143.800781 167.449219 L 150.414062 167.449219 C 150.871094 167.449219 151.238281 167.078125 151.238281 166.625 L 151.238281 155.550781 C 151.238281 155.097656 151.609375 154.730469 152.066406 154.730469 L 223.132812 154.730469 C 223.589844 154.730469 223.957031 155.097656 223.957031 155.550781 L 223.957031 166.625 C 223.957031 167.078125 224.328125 167.449219 224.785156 167.449219 L 231.394531 167.449219 C 231.851562 167.449219 232.222656 167.078125 232.222656 166.625 L 232.222656 134.609375 C 232.222656 134.15625 231.851562 133.789062 231.394531 133.789062 L 224.785156 133.789062 C 224.328125 133.789062 223.957031 134.15625 223.957031 134.609375 L 223.957031 145.683594 C 223.957031 146.136719 223.589844 146.507812 223.132812 146.507812 " fill-opacity="1" fill-rule="nonzero"/></g><g clip-path="url(#id4)"><path fill="rgb(95.689392%, 96.469116%, 98.81897%)" d="M 183.46875 124.8125 L 183.46875 131.421875 C 183.46875 131.875 183.835938 132.242188 184.292969 132.242188 L 190.90625 132.242188 C 191.363281 132.242188 191.730469 131.875 191.730469 131.421875 L 191.730469 124.8125 C 191.730469 124.355469 191.363281 123.988281 190.90625 123.988281 L 184.292969 123.988281 C 183.835938 123.988281 183.46875 124.355469 183.46875 124.8125 Z M 199.128906 124.8125 L 199.128906 131.421875 C 199.128906 131.875 199.496094 132.242188 199.953125 132.242188 L 206.566406 132.242188 C 207.023438 132.242188 207.390625 131.875 207.390625 131.421875 L 207.390625 124.8125 C 207.390625 124.355469 207.023438 123.988281 206.566406 123.988281 L 199.953125 123.988281 C 199.496094 123.988281 199.128906 124.355469 199.128906 124.8125 Z M 167.808594 124.8125 L 167.808594 131.421875 C 167.808594 131.875 168.175781 132.242188 168.632812 132.242188 L 175.242188 132.242188 C 175.699219 132.242188 176.070312 131.875 176.070312 131.421875 L 176.070312 124.8125 C 176.070312 124.355469 175.699219 123.988281 175.242188 123.988281 L 168.632812 123.988281 C 168.175781 123.988281 167.808594 124.355469 167.808594 124.8125 Z M 183.46875 169.816406 L 183.46875 176.425781 C 183.46875 176.878906 183.835938 177.246094 184.292969 177.246094 L 190.90625 177.246094 C 191.363281 177.246094 191.730469 176.878906 191.730469 176.425781 L 191.730469 169.816406 C 191.730469 169.363281 191.363281 168.992188 190.90625 168.992188 L 184.292969 168.992188 C 183.835938 168.992188 183.46875 169.363281 183.46875 169.816406 Z M 199.128906 169.816406 L 199.128906 176.425781 C 199.128906 176.878906 199.496094 177.246094 199.953125 177.246094 L 206.566406 177.246094 C 207.023438 177.246094 207.390625 176.878906 207.390625 176.425781 L 207.390625 169.816406 C 207.390625 169.363281 207.023438 168.992188 206.566406 168.992188 L 199.953125 168.992188 C 199.496094 168.992188 199.128906 169.363281 199.128906 169.816406 Z M 167.808594 169.816406 L 167.808594 176.425781 C 167.808594 176.878906 168.175781 177.246094 168.632812 177.246094 L 175.242188 177.246094 C 175.699219 177.246094 176.070312 176.878906 176.070312 176.425781 L 176.070312 169.816406 C 176.070312 169.363281 175.699219 168.992188 175.242188 168.992188 L 168.632812 168.992188 C 168.175781 168.992188 167.808594 169.363281 167.808594 169.816406 Z M 183.527344 103.261719 L 158.066406 90.945312 C 157.515625 90.679688 156.875 91.078125 156.878906 91.6875 L 156.953125 102.515625 C 156.957031 102.972656 156.585938 103.34375 156.125 103.34375 L 143.800781 103.34375 C 143.347656 103.34375 142.976562 103.710938 142.976562 104.167969 L 142.976562 125.761719 C 142.976562 126.214844 143.347656 126.582031 143.800781 126.582031 L 150.414062 126.582031 C 150.871094 126.582031 151.238281 126.214844 151.238281 125.761719 L 151.238281 112.390625 C 151.238281 111.933594 151.609375 111.566406 152.066406 111.566406 L 164.445312 111.566406 C 164.902344 111.566406 165.277344 111.195312 165.273438 110.738281 L 165.230469 104.875 C 165.226562 104.265625 165.867188 103.863281 166.417969 104.128906 L 181.625 111.484375 C 181.734375 111.539062 181.859375 111.566406 181.984375 111.566406 L 223.132812 111.566406 C 223.589844 111.566406 223.957031 111.933594 223.957031 112.390625 L 223.957031 125.761719 C 223.957031 126.214844 224.328125 126.582031 224.785156 126.582031 L 231.394531 126.582031 C 231.851562 126.582031 232.222656 126.214844 232.222656 125.761719 L 232.222656 104.167969 C 232.222656 103.710938 231.851562 103.34375 231.394531 103.34375 L 183.886719 103.34375 C 183.761719 103.34375 183.640625 103.316406 183.527344 103.261719 Z M 223.957031 188.847656 L 223.957031 175.476562 C 223.957031 175.023438 224.328125 174.652344 224.785156 174.652344 L 231.394531 174.652344 C 231.851562 174.652344 232.222656 175.023438 232.222656 175.476562 L 232.222656 197.070312 C 232.222656 197.523438 231.851562 197.890625 231.394531 197.890625 L 219.074219 197.890625 C 218.613281 197.890625 218.242188 198.265625 218.246094 198.71875 L 218.320312 209.546875 C 218.324219 210.15625 217.683594 210.558594 217.132812 210.292969 L 191.671875 197.972656 C 191.558594 197.917969 191.4375 197.890625 191.3125 197.890625 L 143.800781 197.890625 C 143.347656 197.890625 142.976562 197.523438 142.976562 197.070312 L 142.976562 175.476562 C 142.976562 175.023438 143.347656 174.652344 143.800781 174.652344 L 150.414062 174.652344 C 150.871094 174.652344 151.238281 175.023438 151.238281 175.476562 L 151.238281 188.847656 C 151.238281 189.300781 151.609375 189.667969 152.066406 189.667969 L 193.214844 189.667969 C 193.339844 189.667969 193.460938 189.699219 193.574219 189.753906 L 208.777344 197.105469 C 209.328125 197.375 209.96875 196.972656 209.964844 196.363281 L 209.925781 190.496094 C 209.921875 190.042969 210.292969 189.667969 210.753906 189.667969 L 223.132812 189.667969 C 223.589844 189.667969 223.957031 189.300781 223.957031 188.847656 " fill-opacity="1" fill-rule="nonzero"/></g><g fill="rgb(95.689392%, 96.469116%, 98.81897%)" fill-opacity="1"><g transform="translate(88.660113, 270.321018)"><g><path d="M 26.203125 0 L 24.234375 -5.9375 L 11.5625 -5.9375 L 9.609375 0 L 0.453125 0 L 12.71875 -35.390625 L 23.171875 -35.390625 L 35.390625 0 Z M 13.734375 -12.46875 L 22.078125 -12.46875 L 17.90625 -25.046875 Z M 13.734375 -12.46875 "/></g></g></g><g fill="rgb(95.689392%, 96.469116%, 98.81897%)" fill-opacity="1"><g transform="translate(122.292516, 270.321018)"><g><path d="M 12.375 -6.53125 L 16.1875 -6.53125 C 19.476562 -6.53125 22.0625 -7.535156 23.9375 -9.546875 C 25.8125 -11.566406 26.75 -14.269531 26.75 -17.65625 C 26.75 -21.039062 25.8125 -23.738281 23.9375 -25.75 C 22.0625 -27.757812 19.476562 -28.765625 16.1875 -28.765625 L 12.375 -28.765625 Z M 16.1875 -35.296875 C 21.820312 -35.296875 26.445312 -33.660156 30.0625 -30.390625 C 33.6875 -27.128906 35.5 -22.890625 35.5 -17.671875 C 35.5 -12.460938 33.6875 -8.210938 30.0625 -4.921875 C 26.445312 -1.640625 21.820312 0 16.1875 0 L 3.765625 0 L 3.765625 -35.296875 Z M 16.1875 -35.296875 "/></g></g></g><g fill="rgb(95.689392%, 96.469116%, 98.81897%)" fill-opacity="1"><g transform="translate(157.232019, 270.321018)"><g><path d="M 12.375 -6.53125 L 16.1875 -6.53125 C 19.476562 -6.53125 22.0625 -7.535156 23.9375 -9.546875 C 25.8125 -11.566406 26.75 -14.269531 26.75 -17.65625 C 26.75 -21.039062 25.8125 -23.738281 23.9375 -25.75 C 22.0625 -27.757812 19.476562 -28.765625 16.1875 -28.765625 L 12.375 -28.765625 Z M 16.1875 -35.296875 C 21.820312 -35.296875 26.445312 -33.660156 30.0625 -30.390625 C 33.6875 -27.128906 35.5 -22.890625 35.5 -17.671875 C 35.5 -12.460938 33.6875 -8.210938 30.0625 -4.921875 C 26.445312 -1.640625 21.820312 0 16.1875 0 L 3.765625 0 L 3.765625 -35.296875 Z M 16.1875 -35.296875 "/></g></g></g><g fill="rgb(95.689392%, 96.469116%, 98.81897%)" fill-opacity="1"><g transform="translate(192.171527, 270.321018)"><g><path d="M 26.203125 0 L 24.234375 -5.9375 L 11.5625 -5.9375 L 9.609375 0 L 0.453125 0 L 12.71875 -35.390625 L 23.171875 -35.390625 L 35.390625 0 Z M 13.734375 -12.46875 L 22.078125 -12.46875 L 17.90625 -25.046875 Z M 13.734375 -12.46875 "/></g></g></g><g fill="rgb(100%, 100%, 100%)" fill-opacity="1"><g transform="translate(225.792916, 270.321018)"><g><path d="M 1.96875 -0.5 L 1.96875 -6.890625 C 2.863281 -7.691406 4.132812 -8.796875 5.78125 -10.203125 C 7.425781 -11.609375 8.703125 -12.707031 9.609375 -13.5 C 10.515625 -14.289062 11.566406 -15.28125 12.765625 -16.46875 C 13.972656 -17.65625 14.878906 -18.671875 15.484375 -19.515625 C 17.054688 -21.691406 17.84375 -23.582031 17.84375 -25.1875 C 17.84375 -28.039062 16.585938 -29.46875 14.078125 -29.46875 C 12.867188 -29.46875 11.910156 -29.039062 11.203125 -28.1875 C 10.503906 -27.332031 10.15625 -26.097656 10.15625 -24.484375 L 1.859375 -24.484375 C 1.859375 -28.503906 3.019531 -31.546875 5.34375 -33.609375 C 7.675781 -35.671875 10.738281 -36.703125 14.53125 -36.703125 C 18.320312 -36.703125 21.269531 -35.617188 23.375 -33.453125 C 25.488281 -31.296875 26.546875 -28.691406 26.546875 -25.640625 C 26.546875 -23.328125 26.046875 -21.300781 25.046875 -19.5625 C 24.441406 -18.550781 23.921875 -17.691406 23.484375 -16.984375 C 23.046875 -16.285156 22.320312 -15.414062 21.3125 -14.375 C 20.3125 -13.34375 19.578125 -12.585938 19.109375 -12.109375 C 18.640625 -11.640625 17.773438 -10.835938 16.515625 -9.703125 C 15.253906 -8.566406 14.457031 -7.828125 14.125 -7.484375 L 27.203125 -7.484375 L 27.203125 -0.5 Z M 1.96875 -0.5 "/></g></g></g><g fill="rgb(100%, 100%, 100%)" fill-opacity="1"><g transform="translate(252.286496, 270.321018)"><g><path d="M 19.96875 -13.984375 L 19.96875 -26.453125 L 12.015625 -13.984375 Z M 19.359375 0 L 19.359375 -6.53125 L 2.46875 -6.53125 L 2.46875 -13.46875 L 18.359375 -36.203125 L 27.953125 -36.203125 L 27.953125 -13.984375 L 32.078125 -13.984375 L 32.078125 -6.53125 L 27.953125 -6.53125 L 27.953125 0 Z M 19.359375 0 "/></g></g></g><g fill="rgb(95.689392%, 96.469116%, 98.81897%)" fill-opacity="1"><g transform="translate(114.370533, 289.722989)"><g><path d="M 2.484375 -7.4375 L 2.484375 -4.484375 L 6.75 -4.484375 L 6.75 -3.4375 L 2.484375 -3.4375 L 2.484375 0 L 1.28125 0 L 1.28125 -8.5 L 7.265625 -8.5 L 7.265625 -7.4375 Z M 2.484375 -7.4375 "/></g></g></g><g fill="rgb(95.689392%, 96.469116%, 98.81897%)" fill-opacity="1"><g transform="translate(124.508374, 289.722989)"><g><path d="M 1.28125 -8.5 L 2.484375 -8.5 L 2.484375 -1.0625 L 7.09375 -1.0625 L 7.09375 0 L 1.28125 0 Z M 1.28125 -8.5 "/></g></g></g><g fill="rgb(95.689392%, 96.469116%, 98.81897%)" fill-opacity="1"><g transform="translate(134.148443, 289.722989)"><g><path d="M 5.109375 0.09375 C 4.253906 0.09375 3.484375 -0.09375 2.796875 -0.46875 C 2.109375 -0.84375 1.566406 -1.359375 1.171875 -2.015625 C 0.773438 -2.679688 0.578125 -3.425781 0.578125 -4.25 C 0.578125 -5.0625 0.773438 -5.800781 1.171875 -6.46875 C 1.566406 -7.132812 2.109375 -7.65625 2.796875 -8.03125 C 3.484375 -8.40625 4.253906 -8.59375 5.109375 -8.59375 C 5.960938 -8.59375 6.734375 -8.40625 7.421875 -8.03125 C 8.109375 -7.65625 8.644531 -7.132812 9.03125 -6.46875 C 9.414062 -5.8125 9.609375 -5.070312 9.609375 -4.25 C 9.609375 -3.425781 9.414062 -2.679688 9.03125 -2.015625 C 8.644531 -1.359375 8.109375 -0.84375 7.421875 -0.46875 C 6.734375 -0.09375 5.960938 0.09375 5.109375 0.09375 Z M 5.109375 -0.984375 C 5.734375 -0.984375 6.296875 -1.125 6.796875 -1.40625 C 7.296875 -1.6875 7.6875 -2.078125 7.96875 -2.578125 C 8.257812 -3.078125 8.40625 -3.632812 8.40625 -4.25 C 8.40625 -4.863281 8.257812 -5.421875 7.96875 -5.921875 C 7.6875 -6.421875 7.296875 -6.8125 6.796875 -7.09375 C 6.296875 -7.375 5.734375 -7.515625 5.109375 -7.515625 C 4.484375 -7.515625 3.914062 -7.375 3.40625 -7.09375 C 2.90625 -6.8125 2.507812 -6.421875 2.21875 -5.921875 C 1.9375 -5.421875 1.796875 -4.863281 1.796875 -4.25 C 1.796875 -3.632812 1.9375 -3.078125 2.21875 -2.578125 C 2.507812 -2.078125 2.90625 -1.6875 3.40625 -1.40625 C 3.914062 -1.125 4.484375 -0.984375 5.109375 -0.984375 Z M 5.109375 -0.984375 "/></g></g></g><g fill="rgb(95.689392%, 96.469116%, 98.81897%)" fill-opacity="1"><g transform="translate(146.775101, 289.722989)"><g><path d="M 5.078125 0.09375 C 4.222656 0.09375 3.453125 -0.09375 2.765625 -0.46875 C 2.085938 -0.84375 1.550781 -1.359375 1.15625 -2.015625 C 0.769531 -2.679688 0.578125 -3.425781 0.578125 -4.25 C 0.578125 -5.070312 0.769531 -5.8125 1.15625 -6.46875 C 1.550781 -7.132812 2.09375 -7.65625 2.78125 -8.03125 C 3.46875 -8.40625 4.238281 -8.59375 5.09375 -8.59375 C 5.75 -8.59375 6.351562 -8.476562 6.90625 -8.25 C 7.457031 -8.03125 7.925781 -7.703125 8.3125 -7.265625 L 7.53125 -6.5 C 6.882812 -7.175781 6.085938 -7.515625 5.140625 -7.515625 C 4.503906 -7.515625 3.929688 -7.375 3.421875 -7.09375 C 2.910156 -6.8125 2.507812 -6.421875 2.21875 -5.921875 C 1.9375 -5.421875 1.796875 -4.863281 1.796875 -4.25 C 1.796875 -3.632812 1.9375 -3.078125 2.21875 -2.578125 C 2.507812 -2.078125 2.910156 -1.6875 3.421875 -1.40625 C 3.929688 -1.125 4.503906 -0.984375 5.140625 -0.984375 C 6.085938 -0.984375 6.882812 -1.320312 7.53125 -2 L 8.3125 -1.234375 C 7.925781 -0.796875 7.453125 -0.460938 6.890625 -0.234375 C 6.335938 -0.015625 5.734375 0.09375 5.078125 0.09375 Z M 5.078125 0.09375 "/></g></g></g><g fill="rgb(95.689392%, 96.469116%, 98.81897%)" fill-opacity="1"><g transform="translate(157.981304, 289.722989)"><g><path d="M 4.046875 -3.78125 L 2.484375 -2.203125 L 2.484375 0 L 1.28125 0 L 1.28125 -8.5 L 2.484375 -8.5 L 2.484375 -3.75 L 7.109375 -8.5 L 8.484375 -8.5 L 4.859375 -4.671875 L 8.71875 0 L 7.296875 0 Z M 4.046875 -3.78125 "/></g></g></g><g fill="rgb(95.689392%, 96.469116%, 98.81897%)" fill-opacity="1"><g transform="translate(169.138949, 289.722989)"><g/></g></g><g fill="rgb(95.689392%, 96.469116%, 98.81897%)" fill-opacity="1"><g transform="translate(174.833334, 289.722989)"><g><path d="M 2.96875 -7.4375 L 0.046875 -7.4375 L 0.046875 -8.5 L 7.078125 -8.5 L 7.078125 -7.4375 L 4.171875 -7.4375 L 4.171875 0 L 2.96875 0 Z M 2.96875 -7.4375 "/></g></g></g><g fill="rgb(95.689392%, 96.469116%, 98.81897%)" fill-opacity="1"><g transform="translate(184.388418, 289.722989)"><g><path d="M 5.109375 0.09375 C 4.253906 0.09375 3.484375 -0.09375 2.796875 -0.46875 C 2.109375 -0.84375 1.566406 -1.359375 1.171875 -2.015625 C 0.773438 -2.679688 0.578125 -3.425781 0.578125 -4.25 C 0.578125 -5.0625 0.773438 -5.800781 1.171875 -6.46875 C 1.566406 -7.132812 2.109375 -7.65625 2.796875 -8.03125 C 3.484375 -8.40625 4.253906 -8.59375 5.109375 -8.59375 C 5.960938 -8.59375 6.734375 -8.40625 7.421875 -8.03125 C 8.109375 -7.65625 8.644531 -7.132812 9.03125 -6.46875 C 9.414062 -5.8125 9.609375 -5.070312 9.609375 -4.25 C 9.609375 -3.425781 9.414062 -2.679688 9.03125 -2.015625 C 8.644531 -1.359375 8.109375 -0.84375 7.421875 -0.46875 C 6.734375 -0.09375 5.960938 0.09375 5.109375 0.09375 Z M 5.109375 -0.984375 C 5.734375 -0.984375 6.296875 -1.125 6.796875 -1.40625 C 7.296875 -1.6875 7.6875 -2.078125 7.96875 -2.578125 C 8.257812 -3.078125 8.40625 -3.632812 8.40625 -4.25 C 8.40625 -4.863281 8.257812 -5.421875 7.96875 -5.921875 C 7.6875 -6.421875 7.296875 -6.8125 6.796875 -7.09375 C 6.296875 -7.375 5.734375 -7.515625 5.109375 -7.515625 C 4.484375 -7.515625 3.914062 -7.375 3.40625 -7.09375 C 2.90625 -6.8125 2.507812 -6.421875 2.21875 -5.921875 C 1.9375 -5.421875 1.796875 -4.863281 1.796875 -4.25 C 1.796875 -3.632812 1.9375 -3.078125 2.21875 -2.578125 C 2.507812 -2.078125 2.90625 -1.6875 3.40625 -1.40625 C 3.914062 -1.125 4.484375 -0.984375 5.109375 -0.984375 Z M 5.109375 -0.984375 "/></g></g></g><g fill="rgb(95.689392%, 96.469116%, 98.81897%)" fill-opacity="1"><g transform="translate(197.015073, 289.722989)"><g><path d="M 7.15625 -4.296875 L 8.328125 -4.296875 L 8.328125 -0.984375 C 7.910156 -0.640625 7.421875 -0.375 6.859375 -0.1875 C 6.296875 0 5.710938 0.09375 5.109375 0.09375 C 4.253906 0.09375 3.484375 -0.09375 2.796875 -0.46875 C 2.109375 -0.84375 1.566406 -1.359375 1.171875 -2.015625 C 0.773438 -2.679688 0.578125 -3.425781 0.578125 -4.25 C 0.578125 -5.070312 0.773438 -5.816406 1.171875 -6.484375 C 1.566406 -7.148438 2.109375 -7.664062 2.796875 -8.03125 C 3.492188 -8.40625 4.273438 -8.59375 5.140625 -8.59375 C 5.816406 -8.59375 6.429688 -8.476562 6.984375 -8.25 C 7.535156 -8.03125 8.007812 -7.707031 8.40625 -7.28125 L 7.65625 -6.53125 C 6.96875 -7.1875 6.144531 -7.515625 5.1875 -7.515625 C 4.539062 -7.515625 3.957031 -7.375 3.4375 -7.09375 C 2.925781 -6.8125 2.523438 -6.421875 2.234375 -5.921875 C 1.941406 -5.429688 1.796875 -4.875 1.796875 -4.25 C 1.796875 -3.632812 1.941406 -3.078125 2.234375 -2.578125 C 2.523438 -2.078125 2.925781 -1.6875 3.4375 -1.40625 C 3.957031 -1.125 4.535156 -0.984375 5.171875 -0.984375 C 5.929688 -0.984375 6.59375 -1.164062 7.15625 -1.53125 Z M 7.15625 -4.296875 "/></g></g></g><g fill="rgb(95.689392%, 96.469116%, 98.81897%)" fill-opacity="1"><g transform="translate(208.816162, 289.722989)"><g><path d="M 7.4375 -1.0625 L 7.4375 0 L 1.28125 0 L 1.28125 -8.5 L 7.265625 -8.5 L 7.265625 -7.4375 L 2.484375 -7.4375 L 2.484375 -4.828125 L 6.75 -4.828125 L 6.75 -3.796875 L 2.484375 -3.796875 L 2.484375 -1.0625 Z M 7.4375 -1.0625 "/></g></g></g><g fill="rgb(95.689392%, 96.469116%, 98.81897%)" fill-opacity="1"><g transform="translate(219.378927, 289.722989)"><g><path d="M 2.96875 -7.4375 L 0.046875 -7.4375 L 0.046875 -8.5 L 7.078125 -8.5 L 7.078125 -7.4375 L 4.171875 -7.4375 L 4.171875 0 L 2.96875 0 Z M 2.96875 -7.4375 "/></g></g></g><g fill="rgb(95.689392%, 96.469116%, 98.81897%)" fill-opacity="1"><g transform="translate(228.93401, 289.722989)"><g><path d="M 8.578125 -8.5 L 8.578125 0 L 7.375 0 L 7.375 -3.78125 L 2.484375 -3.78125 L 2.484375 0 L 1.28125 0 L 1.28125 -8.5 L 2.484375 -8.5 L 2.484375 -4.84375 L 7.375 -4.84375 L 7.375 -8.5 Z M 8.578125 -8.5 "/></g></g></g><g fill="rgb(95.689392%, 96.469116%, 98.81897%)" fill-opacity="1"><g transform="translate(241.22073, 289.722989)"><g><path d="M 7.4375 -1.0625 L 7.4375 0 L 1.28125 0 L 1.28125 -8.5 L 7.265625 -8.5 L 7.265625 -7.4375 L 2.484375 -7.4375 L 2.484375 -4.828125 L 6.75 -4.828125 L 6.75 -3.796875 L 2.484375 -3.796875 L 2.484375 -1.0625 Z M 7.4375 -1.0625 "/></g></g></g><g fill="rgb(95.689392%, 96.469116%, 98.81897%)" fill-opacity="1"><g transform="translate(251.783488, 289.722989)"><g><path d="M 6.953125 0 L 5.125 -2.609375 C 4.894531 -2.585938 4.71875 -2.578125 4.59375 -2.578125 L 2.484375 -2.578125 L 2.484375 0 L 1.28125 0 L 1.28125 -8.5 L 4.59375 -8.5 C 5.6875 -8.5 6.550781 -8.234375 7.1875 -7.703125 C 7.820312 -7.179688 8.140625 -6.457031 8.140625 -5.53125 C 8.140625 -4.875 7.972656 -4.316406 7.640625 -3.859375 C 7.316406 -3.398438 6.859375 -3.066406 6.265625 -2.859375 L 8.28125 0 Z M 4.546875 -3.625 C 5.316406 -3.625 5.90625 -3.785156 6.3125 -4.109375 C 6.71875 -4.441406 6.921875 -4.914062 6.921875 -5.53125 C 6.921875 -6.144531 6.71875 -6.613281 6.3125 -6.9375 C 5.90625 -7.269531 5.316406 -7.4375 4.546875 -7.4375 L 2.484375 -7.4375 L 2.484375 -3.625 Z M 4.546875 -3.625 "/></g></g></g></svg>